HIERARCHY
ROOT Hips
{
  OFFSET 0.0000 0.0000 0.0000
  CHANNELS 6 Xposition Yposition Zposition Zrotation Xrotation Yrotation
  JOINT LeftHip
  {
    OFFSET 5.5000 0.0000 0.0000
    CHANNELS 3 Zrotation Xrotation Yrotation
    JOINT LeftKnee
    {
      OFFSET 0.0000 -16.5000 0.0000
      CHANNELS 3 Zrotation Xrotation Yrotation
      JOINT LeftAnkle
      {
        OFFSET 0.0000 -17.0000 -0.0000
        CHANNELS 3 Zrotation Xrotation Yrotation
        End Site
        {
            OFFSET 0.0000 -4.0000 -2.0000
        }
      }
    }
  }
  JOINT RightHip
  {
    OFFSET -5.5000 0.0000 0.0000
    CHANNELS 3 Zrotation Xrotation Yrotation
    JOINT RightKnee
    {
      OFFSET 0.0000 -16.5000 0.0000
      CHANNELS 3 Zrotation Xrotation Yrotation
      JOINT RightAnkle
      {
        OFFSET 0.0000 -17.0000 0.0000
        CHANNELS 3 Zrotation Xrotation Yrotation
        End Site
        {
            OFFSET -0.0000 -4.0000 -2.0000
        }
      }
    }
  }
  JOINT Chest
  {
    OFFSET -0.0000 3.0000 -1.0000
    CHANNELS 3 Zrotation Xrotation Yrotation
    JOINT LeftCollar
    {
      OFFSET -0.0000 18.0000 1.0000
      CHANNELS 3 Zrotation Xrotation Yrotation
      JOINT LeftShoulder
      {
        OFFSET 6.5000 0.0000 0.0000
        CHANNELS 3 Zrotation Xrotation Yrotation
        JOINT LeftElbow
        {
          OFFSET 0.0000 -11.0000 0.0000
          CHANNELS 3 Zrotation Xrotation Yrotation
          JOINT LeftWrist
          {
            OFFSET 0.0000 -10.5000 0.0000
            CHANNELS 3 Zrotation Xrotation Yrotation
            End Site
            {
                OFFSET 0.0000 -6.0000 0.0000
            }
          }
        }
      }
    }
    JOINT RightCollar
    {
      OFFSET -0.0000 18.0000 1.0000
      CHANNELS 3 Zrotation Xrotation Yrotation
      JOINT RightShoulder
      {
        OFFSET -6.5000 -0.0000 0.0000
        CHANNELS 3 Zrotation Xrotation Yrotation
        JOINT RightElbow
        {
          OFFSET 0.0000 -11.0000 0.0000
          CHANNELS 3 Zrotation Xrotation Yrotation
          JOINT RightWrist
          {
            OFFSET 0.0000 -10.5000 0.0000
            CHANNELS 3 Zrotation Xrotation Yrotation
            End Site
            {
                OFFSET 0.0000 -6.0000 0.0000
            }
          }
        }
      }
    }
    JOINT Neck
    {
      OFFSET -0.0000 18.0000 1.0000
      CHANNELS 3 Zrotation Xrotation Yrotation
      JOINT Head
      {
        OFFSET 0.0000 3.0000 0.0000
        CHANNELS 3 Zrotation Xrotation Yrotation
        End Site
        {
            OFFSET 0.0000 7.0000 0.0000
        }
      }
    }
  }
}
MOTION
Frames:	21
Frame Time:	0.041667
-1.6581 37.4320 0.4462 0.61 1.45 1.97 -1.93 -2.24 -1.24 5.00 5.50 0.00 -1.37 -1.53 -0.37 5.62 -1.45 0.72 -5.00 5.95 0.00 0.39 -4.08 -2.33 0.81 -2.32 0.03 -0.16 -0.16 -0.00 5.81 1.02 -6.42 -4.00 -11.81 0.00 -1.13 -0.39 -0.49 -0.16 -0.16 -0.00 -6.19 0.98 6.21 4.00 -11.32 0.00 0.32 -0.08 0.32 0.97 -0.11 0.00 -0.47 0.32 3.56 
-1.7510 37.4102 0.5298 0.61 1.44 1.97 -1.92 -2.21 -1.24 5.00 5.54 0.00 -1.41 -1.59 -0.40 5.79 -1.71 0.73 -5.00 6.73 0.00 0.36 -4.56 -2.64 0.81 -2.16 0.03 -0.16 -0.16 -0.00 5.81 1.02 -6.42 -4.00 -11.81 0.00 -1.13 -0.39 -0.49 -0.16 -0.16 -0.00 -6.19 0.98 6.21 4.00 -11.32 0.00 0.32 -0.08 0.32 0.97 -0.11 0.00 -0.47 0.32 3.56 
-1.7692 37.3846 0.7651 0.61 1.38 1.97 -1.94 -2.07 -1.25 5.00 5.70 0.00 -1.71 -1.80 -0.54 5.90 -1.76 0.74 -5.00 7.70 0.00 0.09 -5.16 -3.22 0.81 -2.04 0.03 -0.16 -0.16 -0.00 5.81 1.02 -6.42 -4.00 -11.81 0.00 -1.13 -0.39 -0.49 -0.16 -0.16 -0.00 -6.19 0.98 6.21 4.00 -11.31 0.00 0.32 -0.08 0.32 0.97 -0.11 0.00 -0.46 0.31 3.48 
-1.8753 37.3490 0.9434 0.61 1.33 1.97 -1.68 -2.09 -1.24 5.00 6.06 0.00 -1.76 -2.12 -0.66 6.16 -1.98 0.75 -5.00 8.77 0.00 -0.33 -5.74 -3.87 0.81 -1.91 0.03 -0.16 -0.16 -0.00 5.81 1.02 -6.43 -4.00 -11.81 0.00 -1.13 -0.39 -0.49 -0.16 -0.16 -0.00 -6.19 0.98 6.21 4.00 -11.56 0.00 0.31 -0.08 0.32 0.97 -0.11 0.00 -0.60 0.29 3.39 
-1.9656 37.3267 1.0340 0.61 1.32 1.97 -1.36 -2.09 -1.23 5.00 7.09 0.00 -2.03 -2.86 -0.88 6.36 -2.00 0.76 -5.00 9.13 0.00 -0.60 -6.06 -4.38 0.81 -1.92 0.03 -0.16 -0.16 -0.00 5.81 1.02 -6.21 -4.00 -11.81 0.00 -1.13 -0.39 -0.49 -0.16 -0.16 -0.00 -6.19 0.98 6.21 4.00 -11.61 0.00 0.48 -0.08 0.32 0.97 -0.11 0.00 -0.64 0.46 3.39 
-2.0737 37.3146 1.1632 0.61 1.26 1.97 -0.90 -2.54 -1.19 5.00 9.11 0.00 -2.02 -4.24 -1.21 6.55 -1.57 1.04 -5.00 8.85 0.00 -0.58 -6.18 -4.70 0.83 -1.92 0.03 -0.16 -0.16 -0.00 6.04 1.22 -6.18 -4.00 -12.58 0.00 -1.27 0.00 -0.50 -0.16 -0.16 -0.00 -6.19 0.98 6.21 4.00 -11.64 0.00 0.48 -0.13 0.32 1.07 -0.11 0.00 -1.05 0.46 3.39 
-2.2130 37.3040 1.3174 0.61 1.25 1.95 -0.11 -3.76 -1.07 5.00 12.99 0.00 -2.05 -6.66 -1.48 6.75 -0.96 1.77 -5.00 8.26 0.00 -0.15 -6.25 -4.97 1.08 -1.93 0.04 -0.24 -0.07 -0.00 6.08 1.78 -5.69 -4.00 -15.52 0.00 -2.38 0.91 -0.24 -0.24 -0.07 -0.00 -6.19 0.96 6.21 4.00 -11.83 0.00 0.49 -0.37 0.32 1.15 -0.11 0.00 -1.38 0.45 3.32 
-2.3141 37.2995 1.4865 0.63 1.38 2.09 0.88 -6.52 -0.77 5.00 19.75 0.00 -3.23 -9.59 -1.54 6.81 -0.28 1.91 -5.00 7.32 0.00 0.31 -6.29 -4.75 1.46 -1.80 0.05 -0.33 -0.12 -0.00 6.23 2.91 -4.46 -4.00 -21.05 0.00 -3.43 1.64 1.19 -0.33 -0.12 -0.00 -6.20 1.19 6.25 4.00 -12.36 0.00 0.36 -0.36 0.32 1.27 -0.07 0.00 -1.86 0.49 3.09 
-2.4163 37.2973 1.5884 0.72 1.56 2.62 1.81 -10.95 -0.20 5.00 27.59 0.00 -3.09 -10.66 -1.36 6.80 0.26 1.87 -5.00 6.40 0.00 0.75 -6.38 -4.34 1.69 -1.60 0.06 -0.32 -0.16 -0.00 5.91 3.83 -3.68 -4.00 -28.22 0.00 -3.80 0.99 3.11 -0.32 -0.16 -0.00 -6.45 1.54 5.70 4.00 -13.50 0.00 0.32 -0.36 0.32 1.29 0.03 0.00 -1.94 0.14 3.05 
-2.4471 37.3028 1.9163 1.03 1.81 3.38 2.42 -16.02 0.48 5.00 36.03 0.00 -3.26 -10.96 1.36 6.56 0.65 1.83 -5.00 6.35 0.00 0.71 -6.69 -4.52 1.69 -1.36 0.04 -0.36 -0.13 -0.00 5.87 4.04 -2.97 -4.00 -35.49 0.00 -4.15 0.76 4.81 -0.36 -0.13 -0.00 -6.48 1.84 4.93 4.00 -14.68 0.00 0.13 -0.76 0.32 1.43 0.03 0.00 -2.19 0.16 3.08 
-2.3974 37.3214 2.0984 1.45 1.75 3.73 2.65 -20.69 1.09 5.00 43.89 0.00 -2.41 -12.48 2.09 6.11 1.16 1.55 -5.00 6.21 0.00 0.56 -7.14 -4.54 1.81 -0.76 0.39 -0.72 -0.02 -0.00 5.62 4.05 -2.71 -4.00 -42.47 0.00 -4.34 0.83 5.81 -0.72 -0.02 -0.00 -6.49 1.92 4.37 4.00 -16.24 0.00 -0.16 -0.72 0.32 1.56 0.03 0.00 -2.39 0.19 3.22 
-2.3265 37.3418 2.4526 1.97 1.67 3.70 2.44 -23.60 1.26 5.00 47.50 0.00 -2.37 -12.78 2.12 5.53 1.81 1.45 -5.00 6.31 0.00 0.32 -7.59 -4.22 1.92 -0.04 1.31 -1.13 0.34 0.01 5.64 4.05 -2.62 -4.00 -49.05 0.00 -3.99 0.66 5.87 -1.13 0.34 0.01 -6.50 2.04 4.06 4.00 -17.83 0.00 -0.44 -0.88 0.32 1.58 0.03 0.00 -2.40 0.19 3.21 
-2.1453 37.3502 2.8364 2.36 1.70 3.61 2.16 -25.94 2.60 5.00 48.01 0.00 -1.98 -11.78 2.13 4.91 2.40 1.20 -5.00 6.40 0.00 0.04 -8.09 -3.89 2.25 0.58 1.69 -1.53 0.16 0.00 5.64 4.05 -2.41 -4.00 -55.42 0.00 -3.47 0.83 6.37 -1.53 0.16 0.00 -6.48 1.82 4.02 4.00 -19.60 0.00 -0.64 -0.92 0.32 1.58 0.03 0.00 -2.40 0.19 3.21 
-2.0134 37.3225 3.3175 2.63 1.71 3.55 1.67 -28.02 2.58 5.00 46.27 0.00 -2.17 -10.05 1.14 4.51 3.18 1.04 -5.00 6.47 0.00 -0.19 -8.83 -3.90 2.46 1.37 2.11 -2.08 -0.01 -0.00 5.63 4.05 -2.41 -4.00 -60.51 0.00 -2.67 0.28 6.63 -2.08 -0.01 -0.00 -6.79 1.51 4.03 4.00 -21.70 0.00 -0.81 -0.98 0.32 1.58 0.03 0.00 -2.40 0.17 3.20 
-1.9487 37.2797 3.8451 2.90 1.79 3.48 1.10 -29.60 2.45 5.00 42.63 0.00 -1.81 -8.59 -0.42 4.20 3.92 1.08 -5.00 6.64 0.00 -0.32 -9.56 -3.91 2.57 2.12 2.63 -2.17 0.00 0.00 5.73 4.02 -2.34 -4.00 -64.93 0.00 -1.51 -0.33 7.57 -2.17 0.00 0.00 -6.89 1.05 4.03 4.00 -24.06 0.00 -0.79 -1.22 0.32 1.58 0.17 0.00 -2.40 -0.38 3.32 
-1.8552 37.2150 4.4426 3.15 2.02 3.43 0.51 -30.37 2.16 5.00 37.81 0.00 -0.82 -6.95 -1.63 3.89 4.60 0.84 -5.00 6.86 0.00 -0.72 -10.45 -3.93 2.70 2.83 3.08 -2.36 0.01 0.00 5.85 4.32 -1.82 -4.00 -68.17 0.00 -0.05 -0.65 8.99 -2.36 0.01 0.00 -6.83 0.67 4.02 4.00 -26.35 0.00 -0.91 -1.19 0.32 1.59 0.34 0.00 -2.44 -1.03 3.43 
-1.6058 37.1224 5.2644 3.39 2.41 3.40 -0.26 -30.81 2.58 5.00 32.67 0.00 -0.60 -4.63 -3.58 3.40 5.27 0.57 -5.00 7.42 0.00 -1.46 -11.21 -3.96 2.73 2.92 3.48 -2.58 -0.16 -0.01 6.10 4.68 -1.18 -4.00 -71.12 0.00 1.36 -0.59 10.70 -2.58 -0.16 -0.01 -7.03 0.60 4.02 4.00 -28.62 0.00 -1.20 -1.39 0.32 1.45 0.35 0.00 -1.86 -1.08 3.43 
-1.2916 36.9627 6.1168 3.42 2.73 3.41 -0.94 -30.82 3.96 5.00 28.25 0.00 -0.27 -2.52 -6.68 3.01 5.97 0.09 -5.00 8.26 0.00 -1.96 -12.55 -3.83 2.73 2.91 3.89 -2.91 -0.16 -0.01 6.33 4.90 -0.69 -4.00 -73.04 0.00 2.62 -0.38 12.24 -2.91 -0.16 -0.01 -7.01 0.39 4.02 4.00 -30.53 0.00 -1.41 -1.46 0.32 1.38 0.51 0.00 -1.54 -1.55 3.63 
-1.1297 36.7215 7.0901 3.34 2.80 3.17 -1.29 -30.88 4.45 5.00 27.14 0.00 0.25 -2.34 -9.18 2.89 6.64 -0.37 -5.00 9.95 0.00 -1.88 -14.33 -3.78 2.81 2.99 4.51 -3.08 -0.11 -0.01 6.34 5.18 -0.31 -4.00 -74.65 0.00 3.43 -0.27 13.12 -3.08 -0.11 -0.01 -7.01 0.41 4.02 4.00 -32.16 0.00 -1.51 -1.87 0.30 1.27 0.60 0.00 -0.67 -1.83 4.01 
-1.0570 36.4428 7.9702 3.23 2.17 2.66 -1.71 -30.18 4.15 5.00 27.92 0.00 -1.39 -2.35 -9.77 2.80 7.23 -0.79 -5.00 12.69 0.00 -0.91 -16.09 -3.20 2.90 3.13 5.36 -3.62 0.32 0.02 6.39 5.62 0.13 -4.00 -75.75 0.00 4.10 -0.10 13.84 -3.62 0.32 0.02 -7.03 0.41 4.02 4.00 -33.25 0.00 -1.76 -1.98 0.42 1.17 0.59 0.00 -0.19 -1.87 4.33 
-0.8633 36.1527 8.8203 3.48 0.60 2.65 -2.78 -28.00 3.55 5.00 30.36 0.00 2.53 -3.76 -4.68 2.05 7.91 -1.81 -5.00 16.86 0.00 0.40 -16.66 -0.98 2.89 4.45 5.90 -3.95 0.40 0.03 6.44 6.11 1.10 -4.00 -76.54 0.00 4.65 0.13 14.65 -3.95 0.40 0.03 -6.72 0.44 4.02 4.00 -33.99 0.00 -1.99 -2.08 0.79 1.05 0.59 0.00 0.35 -2.50 4.42 
